# xmcd
#
# Track frame offsets: 
#        150
#        19808
#        38199
#        58691
#        86046
#        107164
#        129505
#        147033
#        166372
#        186316
#        204684
#        221307
#
# Disc length: 3223 seconds
#
# Revision: 0
# Processed by: cddbd v1.5PL3 Copyright (c) Steve Scherf et al.
# Submitted via: ExactAudioCopy v0.95a5
#
DISCID=ac0c950c
DTITLE=JJ Schultz - Bustin' Outa Town
DYEAR=2004
DGENRE=Folk/Rock
TTITLE0=Song of the independent rancher
TTITLE1=Maple tree
TTITLE2=Bustin' outa town
TTITLE3=County backroad
TTITLE4=Everybody but me
TTITLE5=Two day train
TTITLE6=Max my dog
TTITLE7=Need a pen
TTITLE8=The highway (and life in between)
TTITLE9=Jackie you, Jackie me
TTITLE10=Popsicles and cheese
TTITLE11=Me and Elvis (we'd be friends)
EXTD=
EXTT0=
EXTT1=
EXTT2=
EXTT3=
EXTT4=
EXTT5=
EXTT6=
EXTT7=
EXTT8=
EXTT9=
EXTT10=
EXTT11=
PLAYORDER=
